<svg xmlns="http://www.w3.org/2000/svg" xmlns:xlink="http://www.w3.org/1999/xlink" width="200" zoomAndPan="magnify" viewBox="0 0 150 30.000001" height="40" preserveAspectRatio="xMidYMid meet" version="1.0"><defs><g/></defs><g fill="#000000" fill-opacity="1"><g transform="translate(3.389183, 26.023006)"><g><path d="M 17.96875 -20.15625 L 6.671875 -20.15625 L 6.671875 -4.546875 L 17.96875 -4.546875 L 17.96875 0 L 1.78125 0 L 1.78125 -24.703125 L 17.96875 -24.703125 Z M 7.59375 -10.515625 L 7.59375 -11 L 16.15625 -15.125 L 16.15625 -10.515625 Z M 7.59375 -10.515625 "/></g></g></g><g fill="#000000" fill-opacity="1"><g transform="translate(22.734911, 26.023006)"><g><path d="M 23.53125 0 L 17.578125 0 L 11.71875 -8.375 L 5.890625 0 L -0.078125 0 L 8.796875 -12.5625 L 0.28125 -24.703125 L 6.21875 -24.703125 L 11.75 -16.796875 L 17.25 -24.703125 L 23.1875 -24.703125 L 14.65625 -12.671875 Z M 23.53125 0 "/></g></g></g><g fill="#00ff9d" fill-opacity="1"><g transform="translate(47.266451, 26.023006)"><g><path d="M 22.9375 0 L -0.171875 0 L 11.109375 -25.140625 L 11.640625 -25.140625 Z M 11.5 -4.65625 L 17.109375 -1.03125 L 11.390625 -14.015625 L 5.6875 -1.03125 L 11.25 -4.65625 Z M 11.5 -4.65625 "/></g></g></g><g fill="#000000" fill-opacity="1"><g transform="translate(70.061309, 26.023006)"><g><path d="M 22.609375 0 L 16.65625 0 L 8.453125 -11.078125 L 8.453125 -11.609375 L 12.171875 -13.484375 C 12.984375 -13.890625 13.550781 -14.367188 13.875 -14.921875 C 14.207031 -15.484375 14.375 -16.128906 14.375 -16.859375 C 14.375 -17.765625 14.09375 -18.539062 13.53125 -19.1875 C 12.976562 -19.832031 12.132812 -20.15625 11 -20.15625 L 6.671875 -20.15625 L 6.671875 0 L 1.78125 0 L 1.78125 -24.703125 L 11.75 -24.703125 C 13.03125 -24.703125 14.140625 -24.492188 15.078125 -24.078125 C 16.023438 -23.671875 16.8125 -23.117188 17.4375 -22.421875 C 18.070312 -21.722656 18.546875 -20.910156 18.859375 -19.984375 C 19.179688 -19.066406 19.34375 -18.097656 19.34375 -17.078125 C 19.34375 -15.609375 18.953125 -14.304688 18.171875 -13.171875 C 17.390625 -12.035156 16.328125 -11.148438 14.984375 -10.515625 Z M 22.609375 0 "/></g></g></g></svg>