<svg xmlns="http://www.w3.org/2000/svg" xmlns:xlink="http://www.w3.org/1999/xlink" width="200" zoomAndPan="magnify" viewBox="0 0 150 30.000001" height="40" preserveAspectRatio="xMidYMid meet" version="1.0"><defs><g/><clipPath id="62d72f5610"><path d="M 18 0 L 109 0 L 109 29.03125 L 18 29.03125 Z M 18 0 " clip-rule="nonzero"/></clipPath><clipPath id="e48e95dedd"><rect x="0" width="91" y="0" height="30"/></clipPath><clipPath id="ceea5378ae"><path d="M 108.707031 2.277344 L 131.207031 2.277344 L 131.207031 24.777344 L 108.707031 24.777344 Z M 108.707031 2.277344 " clip-rule="nonzero"/></clipPath></defs><g clip-path="url(#62d72f5610)"><g transform="matrix(1, 0, 0, 1, 18, 0.00000000000000569)"><g clip-path="url(#e48e95dedd)"><g fill="#ffffff" fill-opacity="1"><g transform="translate(0.313637, 24.683931)"><g><path d="M 20.75 0 L 15.28125 0 L 7.75 -10.171875 L 7.75 -10.65625 L 11.171875 -12.375 C 11.910156 -12.75 12.429688 -13.191406 12.734375 -13.703125 C 13.035156 -14.210938 13.1875 -14.800781 13.1875 -15.46875 C 13.1875 -16.300781 12.929688 -17.015625 12.421875 -17.609375 C 11.910156 -18.203125 11.132812 -18.5 10.09375 -18.5 L 6.125 -18.5 L 6.125 0 L 1.625 0 L 1.625 -22.671875 L 10.78125 -22.671875 C 11.957031 -22.671875 12.976562 -22.476562 13.84375 -22.09375 C 14.71875 -21.71875 15.441406 -21.207031 16.015625 -20.5625 C 16.585938 -19.925781 17.019531 -19.1875 17.3125 -18.34375 C 17.601562 -17.5 17.75 -16.609375 17.75 -15.671875 C 17.75 -14.328125 17.390625 -13.128906 16.671875 -12.078125 C 15.960938 -11.035156 14.988281 -10.222656 13.75 -9.640625 Z M 20.75 0 "/></g></g></g><g fill="#ffffff" fill-opacity="1"><g transform="translate(19.632229, 24.683931)"><g><path d="M 12.375 -23.0625 C 14.007812 -23.0625 15.535156 -22.75 16.953125 -22.125 C 18.378906 -21.507812 19.625 -20.675781 20.6875 -19.625 C 21.75 -18.570312 22.582031 -17.332031 23.1875 -15.90625 C 23.800781 -14.488281 24.109375 -12.96875 24.109375 -11.34375 C 24.109375 -9.707031 23.800781 -8.175781 23.1875 -6.75 C 22.582031 -5.332031 21.75 -4.097656 20.6875 -3.046875 C 19.625 -1.992188 18.378906 -1.15625 16.953125 -0.53125 C 15.535156 0.0820312 14.007812 0.390625 12.375 0.390625 C 10.75 0.390625 9.222656 0.0820312 7.796875 -0.53125 C 6.378906 -1.15625 5.132812 -1.992188 4.0625 -3.046875 C 3 -4.097656 2.164062 -5.332031 1.5625 -6.75 C 0.957031 -8.175781 0.65625 -9.707031 0.65625 -11.34375 C 0.65625 -12.96875 0.957031 -14.488281 1.5625 -15.90625 C 2.164062 -17.332031 3 -18.570312 4.0625 -19.625 C 5.132812 -20.675781 6.378906 -21.507812 7.796875 -22.125 C 9.222656 -22.75 10.75 -23.0625 12.375 -23.0625 Z M 12.375 -4.046875 C 13.375 -4.046875 14.304688 -4.234375 15.171875 -4.609375 C 16.046875 -4.992188 16.800781 -5.515625 17.4375 -6.171875 C 18.082031 -6.835938 18.585938 -7.613281 18.953125 -8.5 C 19.328125 -9.394531 19.515625 -10.34375 19.515625 -11.34375 C 19.515625 -12.363281 19.328125 -13.3125 18.953125 -14.1875 C 18.585938 -15.0625 18.082031 -15.832031 17.4375 -16.5 C 16.800781 -17.164062 16.046875 -17.6875 15.171875 -18.0625 C 14.304688 -18.445312 13.375 -18.640625 12.375 -18.640625 C 11.375 -18.640625 10.441406 -18.445312 9.578125 -18.0625 C 8.710938 -17.6875 7.957031 -17.164062 7.3125 -16.5 C 6.675781 -15.832031 6.171875 -15.0625 5.796875 -14.1875 C 5.429688 -13.3125 5.25 -12.363281 5.25 -11.34375 C 5.25 -10.34375 5.429688 -9.394531 5.796875 -8.5 C 6.171875 -7.613281 6.675781 -6.835938 7.3125 -6.171875 C 7.957031 -5.515625 8.710938 -4.992188 9.578125 -4.609375 C 10.441406 -4.234375 11.375 -4.046875 12.375 -4.046875 Z M 12.375 -4.046875 "/></g></g></g><g fill="#ffffff" fill-opacity="1"><g transform="translate(44.423983, 24.683931)"><g><path d="M 12.375 -23.0625 C 14.007812 -23.0625 15.535156 -22.75 16.953125 -22.125 C 18.378906 -21.507812 19.625 -20.675781 20.6875 -19.625 C 21.75 -18.570312 22.582031 -17.332031 23.1875 -15.90625 C 23.800781 -14.488281 24.109375 -12.96875 24.109375 -11.34375 C 24.109375 -9.707031 23.800781 -8.175781 23.1875 -6.75 C 22.582031 -5.332031 21.75 -4.097656 20.6875 -3.046875 C 19.625 -1.992188 18.378906 -1.15625 16.953125 -0.53125 C 15.535156 0.0820312 14.007812 0.390625 12.375 0.390625 C 10.75 0.390625 9.222656 0.0820312 7.796875 -0.53125 C 6.378906 -1.15625 5.132812 -1.992188 4.0625 -3.046875 C 3 -4.097656 2.164062 -5.332031 1.5625 -6.75 C 0.957031 -8.175781 0.65625 -9.707031 0.65625 -11.34375 C 0.65625 -12.96875 0.957031 -14.488281 1.5625 -15.90625 C 2.164062 -17.332031 3 -18.570312 4.0625 -19.625 C 5.132812 -20.675781 6.378906 -21.507812 7.796875 -22.125 C 9.222656 -22.75 10.75 -23.0625 12.375 -23.0625 Z M 12.375 -4.046875 C 13.375 -4.046875 14.304688 -4.234375 15.171875 -4.609375 C 16.046875 -4.992188 16.800781 -5.515625 17.4375 -6.171875 C 18.082031 -6.835938 18.585938 -7.613281 18.953125 -8.5 C 19.328125 -9.394531 19.515625 -10.34375 19.515625 -11.34375 C 19.515625 -12.363281 19.328125 -13.3125 18.953125 -14.1875 C 18.585938 -15.0625 18.082031 -15.832031 17.4375 -16.5 C 16.800781 -17.164062 16.046875 -17.6875 15.171875 -18.0625 C 14.304688 -18.445312 13.375 -18.640625 12.375 -18.640625 C 11.375 -18.640625 10.441406 -18.445312 9.578125 -18.0625 C 8.710938 -17.6875 7.957031 -17.164062 7.3125 -16.5 C 6.675781 -15.832031 6.171875 -15.0625 5.796875 -14.1875 C 5.429688 -13.3125 5.25 -12.363281 5.25 -11.34375 C 5.25 -10.34375 5.429688 -9.394531 5.796875 -8.5 C 6.171875 -7.613281 6.675781 -6.835938 7.3125 -6.171875 C 7.957031 -5.515625 8.710938 -4.992188 9.578125 -4.609375 C 10.441406 -4.234375 11.375 -4.046875 12.375 -4.046875 Z M 12.375 -4.046875 "/></g></g></g><g fill="#ffffff" fill-opacity="1"><g transform="translate(69.215737, 24.683931)"><g><path d="M 19.28125 -22.671875 L 19.28125 0 L 14.796875 0 L 14.796875 -9.25 L 6.125 -9.25 L 6.125 0 L 1.625 0 L 1.625 -22.671875 L 6.125 -22.671875 L 6.125 -13.421875 L 14.796875 -13.421875 L 14.796875 -22.671875 Z M 19.28125 -22.671875 "/></g></g></g></g></g></g><g clip-path="url(#ceea5378ae)"><path fill="#8c52ff" d="M 123.214844 13.613281 L 131.527344 2.277344 L 130.640625 2.277344 L 113.996094 24.980469 L 114.882812 24.980469 L 120.132812 17.820312 L 125.382812 24.980469 L 131.546875 24.980469 Z M 120.445312 10.179688 L 120.574219 10.007812 L 114.90625 2.277344 L 108.742188 2.277344 L 117.050781 13.613281 L 108.71875 24.980469 L 109.605469 24.980469 L 120.449219 10.183594 Z M 120.445312 10.179688 " fill-opacity="1" fill-rule="nonzero"/></g></svg>