<svg xmlns="http://www.w3.org/2000/svg" xmlns:xlink="http://www.w3.org/1999/xlink" width="200" zoomAndPan="magnify" viewBox="0 0 150 30.000001" height="40" preserveAspectRatio="xMidYMid meet" version="1.0"><defs><g/><clipPath id="39c09db7c0"><path d="M 30 0 L 121 0 L 121 29.03125 L 30 29.03125 Z M 30 0 " clip-rule="nonzero"/></clipPath><clipPath id="cead4a4426"><rect x="0" width="91" y="0" height="30"/></clipPath><clipPath id="ac17849542"><path d="M 7 16 L 23 16 L 23 26.921875 L 7 26.921875 Z M 7 16 " clip-rule="nonzero"/></clipPath><clipPath id="6bc4527f96"><path d="M 6 2.246094 L 24 2.246094 L 24 17 L 6 17 Z M 6 2.246094 " clip-rule="nonzero"/></clipPath></defs><g clip-path="url(#39c09db7c0)"><g transform="matrix(1, 0, 0, 1, 30, 0.00000000000000569)"><g clip-path="url(#cead4a4426)"><g fill="#ffffff" fill-opacity="1"><g transform="translate(0.415935, 26.87829)"><g><path d="M 17.96875 -20.171875 L 6.671875 -20.171875 L 6.671875 -4.546875 L 17.96875 -4.546875 L 17.96875 0 L 1.78125 0 L 1.78125 -24.71875 L 17.96875 -24.71875 Z M 7.59375 -10.515625 L 7.59375 -11.015625 L 16.15625 -15.125 L 16.15625 -10.515625 Z M 7.59375 -10.515625 "/></g></g></g><g fill="#ffffff" fill-opacity="1"><g transform="translate(19.767708, 26.87829)"><g><path d="M 23.546875 0 L 17.578125 0 L 11.71875 -8.375 L 5.890625 0 L -0.078125 0 L 8.8125 -12.578125 L 0.28125 -24.71875 L 6.21875 -24.71875 L 11.75 -16.796875 L 17.265625 -24.71875 L 23.1875 -24.71875 L 14.671875 -12.671875 Z M 23.546875 0 "/></g></g></g><g fill="#ffffff" fill-opacity="1"><g transform="translate(44.303658, 26.87829)"><g><path d="M 22.9375 0 L -0.171875 0 L 11.109375 -25.140625 L 11.65625 -25.140625 Z M 11.5 -4.65625 L 17.125 -1.03125 L 11.40625 -14.03125 L 5.6875 -1.03125 L 11.265625 -4.65625 Z M 11.5 -4.65625 "/></g></g></g><g fill="#ffffff" fill-opacity="1"><g transform="translate(67.099653, 26.87829)"><g><path d="M 22.625 0 L 16.65625 0 L 8.453125 -11.078125 L 8.453125 -11.609375 L 12.1875 -13.5 C 12.988281 -13.894531 13.554688 -14.367188 13.890625 -14.921875 C 14.222656 -15.484375 14.390625 -16.132812 14.390625 -16.875 C 14.390625 -17.769531 14.109375 -18.539062 13.546875 -19.1875 C 12.992188 -19.84375 12.148438 -20.171875 11.015625 -20.171875 L 6.671875 -20.171875 L 6.671875 0 L 1.78125 0 L 1.78125 -24.71875 L 11.75 -24.71875 C 13.03125 -24.71875 14.144531 -24.507812 15.09375 -24.09375 C 16.039062 -23.675781 16.828125 -23.117188 17.453125 -22.421875 C 18.078125 -21.722656 18.550781 -20.910156 18.875 -19.984375 C 19.195312 -19.066406 19.359375 -18.097656 19.359375 -17.078125 C 19.359375 -15.609375 18.96875 -14.304688 18.1875 -13.171875 C 17.40625 -12.035156 16.335938 -11.148438 14.984375 -10.515625 Z M 22.625 0 "/></g></g></g></g></g></g><path fill="#8c52ff" d="M 23.886719 16.214844 C 23.746094 16.375 23.59375 16.550781 23.449219 16.714844 L 23.460938 16.730469 C 24.09375 17.566406 24.660156 18.363281 25.136719 19.128906 L 25.21875 19.261719 C 25.40625 19.136719 25.550781 18.976562 25.65625 18.777344 C 25.765625 18.574219 25.816406 18.359375 25.816406 18.132812 L 25.816406 13.832031 C 25.230469 14.609375 24.585938 15.40625 23.886719 16.214844 Z M 25 8.445312 L 17.792969 5.148438 C 17.433594 4.984375 17.078125 4.984375 16.71875 5.148438 L 14.097656 6.347656 L 13.425781 6.652344 C 15.128906 7.953125 16.941406 9.554688 18.714844 11.328125 C 18.882812 11.492188 19.042969 11.660156 19.207031 11.824219 L 19.550781 11.65625 C 19.628906 11.613281 19.714844 11.609375 19.800781 11.636719 C 19.886719 11.667969 19.949219 11.722656 19.988281 11.804688 C 20.03125 11.882812 20.035156 11.96875 20.007812 12.054688 C 19.976562 12.140625 19.921875 12.203125 19.839844 12.242188 L 19.683594 12.320312 L 19.914062 12.566406 C 20.898438 13.605469 21.8125 14.648438 22.632812 15.660156 C 22.773438 15.832031 22.910156 16.007812 23.042969 16.179688 L 23.046875 16.179688 C 23.191406 16.015625 23.335938 15.851562 23.480469 15.6875 C 23.75 15.371094 24.015625 15.058594 24.269531 14.75 L 24.375 14.617188 C 24.894531 13.976562 25.378906 13.347656 25.816406 12.738281 L 25.816406 9.691406 C 25.820312 9.421875 25.746094 9.171875 25.597656 8.945312 C 25.449219 8.71875 25.25 8.550781 25 8.445312 Z M 22.234375 10.332031 L 22.96875 9.96875 C 23.046875 9.929688 23.132812 9.925781 23.21875 9.953125 C 23.300781 9.984375 23.363281 10.039062 23.402344 10.121094 C 23.445312 10.199219 23.449219 10.285156 23.417969 10.367188 C 23.390625 10.453125 23.335938 10.515625 23.253906 10.554688 L 22.523438 10.917969 C 22.441406 10.957031 22.359375 10.960938 22.273438 10.933594 C 22.191406 10.902344 22.128906 10.847656 22.089844 10.769531 C 22.050781 10.6875 22.042969 10.605469 22.070312 10.519531 C 22.101562 10.4375 22.152344 10.375 22.234375 10.332031 Z M 20.527344 11.175781 L 21.257812 10.8125 C 21.339844 10.773438 21.421875 10.769531 21.507812 10.800781 C 21.589844 10.828125 21.652344 10.882812 21.691406 10.964844 C 21.734375 11.042969 21.738281 11.125 21.710938 11.210938 C 21.683594 11.296875 21.628906 11.359375 21.546875 11.398438 L 20.816406 11.761719 C 20.769531 11.78125 20.722656 11.792969 20.671875 11.792969 C 20.5 11.792969 20.394531 11.710938 20.355469 11.542969 C 20.316406 11.375 20.371094 11.25 20.527344 11.175781 Z M 24.855469 9.765625 L 24.234375 10.074219 C 24.152344 10.109375 24.070312 10.117188 23.988281 10.085938 C 23.902344 10.058594 23.839844 10.003906 23.800781 9.921875 C 23.761719 9.84375 23.753906 9.761719 23.785156 9.675781 C 23.8125 9.589844 23.867188 9.527344 23.945312 9.488281 L 24.570312 9.179688 C 24.648438 9.136719 24.734375 9.128906 24.824219 9.15625 C 24.910156 9.183594 24.972656 9.238281 25.015625 9.320312 C 25.054688 9.40625 25.0625 9.488281 25.03125 9.578125 C 25 9.664062 24.941406 9.726562 24.859375 9.765625 Z M 24.855469 9.765625 " fill-opacity="1" fill-rule="nonzero"/><path fill="#8c52ff" d="M 24.582031 19.472656 C 24.132812 18.753906 23.605469 17.988281 23.011719 17.203125 C 22.382812 17.894531 21.71875 18.589844 21.03125 19.277344 C 19.886719 20.421875 18.730469 21.488281 17.59375 22.453125 C 17.648438 22.4375 17.703125 22.417969 17.753906 22.398438 L 24.621094 19.535156 C 24.605469 19.515625 24.59375 19.496094 24.582031 19.472656 Z M 24.582031 19.472656 " fill-opacity="1" fill-rule="nonzero"/><path fill="#8c52ff" d="M 22.601562 16.671875 C 22.46875 16.5 22.332031 16.324219 22.191406 16.152344 C 21.261719 15 20.207031 13.808594 19.066406 12.621094 C 18.9375 12.664062 18.824219 12.636719 18.730469 12.539062 C 18.636719 12.441406 18.609375 12.328125 18.65625 12.199219 C 18.523438 12.066406 18.386719 11.929688 18.253906 11.792969 C 16.398438 9.9375 14.507812 8.28125 12.75 6.964844 L 9.511719 8.445312 C 9.261719 8.550781 9.0625 8.714844 8.914062 8.941406 C 8.765625 9.167969 8.691406 9.417969 8.695312 9.6875 L 8.695312 18.136719 C 8.691406 18.40625 8.765625 18.65625 8.914062 18.882812 C 9.0625 19.109375 9.261719 19.277344 9.511719 19.382812 L 15.984375 22.074219 L 16.316406 22.214844 C 16.507812 22.035156 16.777344 21.917969 16.921875 21.703125 C 16.929688 21.691406 16.9375 21.679688 16.945312 21.671875 C 16.933594 21.636719 16.925781 21.601562 16.925781 21.566406 L 16.925781 20.773438 C 16.925781 20.691406 16.957031 20.617188 17.011719 20.554688 C 17.070312 20.492188 17.140625 20.457031 17.226562 20.453125 C 17.308594 20.445312 17.386719 20.46875 17.453125 20.519531 C 17.519531 20.570312 17.558594 20.636719 17.574219 20.722656 C 17.578125 20.738281 17.578125 20.757812 17.578125 20.773438 L 17.578125 21.117188 L 17.601562 21.117188 C 17.691406 21.113281 17.765625 21.144531 17.824219 21.210938 C 17.875 21.21875 17.921875 21.238281 17.964844 21.265625 C 18.828125 20.503906 19.699219 19.683594 20.5625 18.816406 C 21.273438 18.105469 21.957031 17.390625 22.601562 16.675781 Z M 10.71875 9.925781 C 10.679688 10.003906 10.617188 10.058594 10.53125 10.089844 C 10.445312 10.117188 10.363281 10.113281 10.28125 10.074219 L 9.660156 9.765625 C 9.574219 9.726562 9.515625 9.664062 9.484375 9.578125 C 9.453125 9.488281 9.457031 9.402344 9.5 9.320312 C 9.539062 9.238281 9.605469 9.183594 9.691406 9.152344 C 9.78125 9.125 9.867188 9.132812 9.949219 9.179688 L 10.574219 9.488281 C 10.652344 9.527344 10.707031 9.589844 10.734375 9.675781 C 10.765625 9.761719 10.757812 9.84375 10.71875 9.925781 Z M 12.425781 10.769531 C 12.386719 10.847656 12.324219 10.902344 12.238281 10.933594 C 12.152344 10.960938 12.070312 10.957031 11.992188 10.917969 L 11.257812 10.554688 C 11.175781 10.515625 11.121094 10.453125 11.089844 10.367188 C 11.0625 10.28125 11.066406 10.199219 11.109375 10.117188 C 11.148438 10.039062 11.210938 9.984375 11.296875 9.953125 C 11.382812 9.925781 11.464844 9.929688 11.546875 9.972656 L 12.277344 10.332031 C 12.359375 10.371094 12.414062 10.433594 12.441406 10.519531 C 12.46875 10.605469 12.464844 10.6875 12.425781 10.769531 Z M 14.132812 11.613281 C 14.09375 11.691406 14.03125 11.746094 13.945312 11.777344 C 13.859375 11.804688 13.777344 11.800781 13.699219 11.761719 L 12.964844 11.398438 C 12.886719 11.359375 12.832031 11.296875 12.800781 11.210938 C 12.773438 11.125 12.777344 11.042969 12.816406 10.960938 C 12.859375 10.878906 12.921875 10.824219 13.007812 10.796875 C 13.089844 10.769531 13.175781 10.773438 13.253906 10.8125 L 13.988281 11.175781 C 14.066406 11.214844 14.121094 11.277344 14.152344 11.363281 C 14.179688 11.449219 14.171875 11.53125 14.132812 11.613281 Z M 15.839844 12.457031 C 15.800781 12.535156 15.738281 12.589844 15.652344 12.621094 C 15.570312 12.648438 15.488281 12.644531 15.40625 12.605469 L 14.671875 12.242188 C 14.59375 12.203125 14.539062 12.140625 14.511719 12.054688 C 14.484375 11.972656 14.488281 11.886719 14.527344 11.808594 C 14.566406 11.726562 14.628906 11.671875 14.714844 11.644531 C 14.796875 11.613281 14.878906 11.621094 14.960938 11.65625 L 15.691406 12.019531 C 15.773438 12.058594 15.828125 12.121094 15.859375 12.207031 C 15.886719 12.292969 15.882812 12.375 15.839844 12.457031 Z M 17.582031 19.6875 C 17.582031 19.777344 17.550781 19.855469 17.488281 19.917969 C 17.421875 19.980469 17.347656 20.011719 17.257812 20.011719 C 17.167969 20.011719 17.089844 19.980469 17.027344 19.917969 C 16.960938 19.855469 16.929688 19.777344 16.929688 19.6875 L 16.929688 18.871094 C 16.929688 18.78125 16.960938 18.703125 17.027344 18.640625 C 17.089844 18.574219 17.167969 18.542969 17.257812 18.542969 C 17.347656 18.542969 17.421875 18.574219 17.488281 18.640625 C 17.550781 18.703125 17.582031 18.78125 17.582031 18.871094 Z M 17.582031 17.78125 C 17.582031 17.871094 17.550781 17.949219 17.488281 18.011719 C 17.421875 18.078125 17.347656 18.109375 17.257812 18.109375 C 17.167969 18.109375 17.089844 18.078125 17.027344 18.011719 C 16.960938 17.949219 16.929688 17.871094 16.929688 17.78125 L 16.929688 16.964844 C 16.929688 16.875 16.960938 16.796875 17.027344 16.734375 C 17.089844 16.671875 17.167969 16.640625 17.257812 16.640625 C 17.347656 16.640625 17.421875 16.671875 17.488281 16.734375 C 17.550781 16.796875 17.582031 16.875 17.582031 16.964844 Z M 17.582031 15.875 C 17.582031 15.96875 17.550781 16.042969 17.488281 16.109375 C 17.421875 16.171875 17.347656 16.203125 17.257812 16.203125 C 17.167969 16.203125 17.089844 16.171875 17.027344 16.109375 C 16.960938 16.042969 16.929688 15.96875 16.929688 15.875 L 16.929688 15.058594 C 16.929688 14.96875 16.960938 14.894531 17.027344 14.828125 C 17.089844 14.765625 17.167969 14.734375 17.257812 14.734375 C 17.347656 14.734375 17.421875 14.765625 17.488281 14.828125 C 17.550781 14.894531 17.582031 14.96875 17.582031 15.058594 Z M 18.132812 13.085938 L 17.582031 13.359375 L 17.582031 13.972656 C 17.582031 14.0625 17.550781 14.140625 17.488281 14.203125 C 17.421875 14.265625 17.347656 14.300781 17.257812 14.300781 C 17.167969 14.300781 17.089844 14.265625 17.027344 14.203125 C 16.960938 14.140625 16.929688 14.0625 16.929688 13.972656 L 16.929688 13.359375 L 16.378906 13.085938 C 16.304688 13.042969 16.253906 12.980469 16.226562 12.898438 C 16.199219 12.816406 16.207031 12.734375 16.246094 12.65625 C 16.285156 12.578125 16.34375 12.523438 16.425781 12.496094 C 16.507812 12.464844 16.589844 12.464844 16.667969 12.5 L 17.257812 12.792969 L 17.84375 12.5 C 17.925781 12.460938 18.007812 12.457031 18.09375 12.484375 C 18.179688 12.511719 18.242188 12.566406 18.28125 12.648438 C 18.320312 12.730469 18.328125 12.8125 18.296875 12.898438 C 18.269531 12.984375 18.214844 13.046875 18.132812 13.085938 Z M 18.132812 13.085938 " fill-opacity="1" fill-rule="nonzero"/><g clip-path="url(#ac17849542)"><path fill="#8c52ff" d="M 22.210938 16.15625 C 22.347656 16.332031 22.484375 16.503906 22.621094 16.675781 C 21.988281 17.375 21.316406 18.074219 20.625 18.769531 C 19.617188 19.773438 18.601562 20.722656 17.601562 21.59375 C 17.5 21.679688 17.402344 21.765625 17.300781 21.847656 C 17.097656 22.027344 16.894531 22.199219 16.6875 22.367188 C 15.335938 23.488281 14.023438 24.449219 12.824219 25.191406 C 11.546875 25.984375 9.984375 26.785156 8.867188 26.785156 C 8.453125 26.785156 8.101562 26.675781 7.847656 26.421875 C 6.792969 25.367188 8.207031 22.707031 9.578125 20.664062 C 9.632812 20.582031 9.710938 20.535156 9.808594 20.523438 C 9.910156 20.507812 9.996094 20.535156 10.070312 20.601562 C 10.210938 20.734375 10.226562 20.878906 10.117188 21.039062 C 8.125 24.007812 7.898438 25.542969 8.308594 25.960938 C 8.691406 26.339844 9.984375 26.191406 12.480469 24.640625 C 13.578125 23.957031 14.769531 23.089844 16.003906 22.082031 C 16.316406 21.828125 16.632812 21.566406 16.949219 21.296875 C 17.164062 21.109375 17.378906 20.921875 17.597656 20.730469 C 18.449219 19.972656 19.308594 19.164062 20.160156 18.3125 C 20.875 17.59375 21.5625 16.875 22.210938 16.15625 Z M 22.210938 16.15625 " fill-opacity="1" fill-rule="nonzero"/></g><path fill="#8c52ff" d="M 27.027344 10.964844 C 26.316406 12.101562 25.421875 13.339844 24.375 14.613281 L 24.265625 14.746094 C 24.011719 15.054688 23.75 15.367188 23.476562 15.679688 C 23.335938 15.84375 23.191406 16.007812 23.042969 16.175781 L 23.035156 16.179688 C 22.902344 16.007812 22.765625 15.835938 22.625 15.660156 L 22.628906 15.65625 C 22.773438 15.492188 22.917969 15.324219 23.058594 15.160156 C 24.042969 14.03125 24.960938 12.851562 25.8125 11.621094 C 26.046875 11.277344 26.265625 10.945312 26.464844 10.617188 C 28.015625 8.121094 28.164062 6.828125 27.785156 6.449219 C 27.433594 6.097656 26.351562 6.15625 24.164062 7.4375 C 24.035156 7.515625 23.910156 7.507812 23.792969 7.410156 C 23.703125 7.339844 23.664062 7.246094 23.675781 7.132812 C 23.683594 7.019531 23.738281 6.933594 23.835938 6.875 C 25.570312 5.871094 27.414062 5.152344 28.246094 5.988281 C 29.203125 6.941406 28.109375 9.222656 27.027344 10.964844 Z M 27.027344 10.964844 " fill-opacity="1" fill-rule="nonzero"/><g clip-path="url(#6bc4527f96)"><path fill="#8c52ff" d="M 22.632812 15.660156 C 21.8125 14.644531 20.898438 13.605469 19.914062 12.5625 L 19.683594 12.320312 C 19.527344 12.15625 19.367188 11.992188 19.207031 11.828125 C 19.035156 11.652344 18.863281 11.476562 18.6875 11.300781 C 16.917969 9.53125 15.113281 7.941406 13.425781 6.65625 C 12.585938 6.015625 11.769531 5.449219 11.007812 4.976562 C 8.511719 3.425781 7.214844 3.277344 6.839844 3.65625 C 6.429688 4.0625 6.644531 5.570312 8.585938 8.488281 C 8.632812 8.5625 8.652344 8.644531 8.632812 8.734375 C 8.613281 8.820312 8.566406 8.890625 8.492188 8.941406 C 8.417969 8.992188 8.335938 9.007812 8.246094 8.988281 C 8.160156 8.972656 8.089844 8.925781 8.039062 8.847656 C 6.707031 6.84375 5.335938 4.234375 6.375 3.191406 C 7.324219 2.242188 9.605469 3.335938 11.351562 4.421875 C 12.300781 5.015625 13.214844 5.660156 14.097656 6.347656 C 15.730469 7.613281 17.457031 9.148438 19.152344 10.839844 C 20.53125 12.214844 21.832031 13.65625 23.0625 15.164062 C 23.203125 15.339844 23.34375 15.511719 23.476562 15.683594 C 23.335938 15.847656 23.191406 16.011719 23.046875 16.179688 L 23.042969 16.175781 C 22.910156 16.003906 22.773438 15.832031 22.632812 15.660156 Z M 22.632812 15.660156 " fill-opacity="1" fill-rule="nonzero"/></g><path fill="#8c52ff" d="M 26.800781 23.617188 C 26.542969 23.871094 26.191406 23.984375 25.773438 23.984375 C 24.484375 23.984375 22.589844 22.921875 21.042969 21.882812 C 20.96875 21.832031 20.921875 21.765625 20.90625 21.675781 C 20.886719 21.585938 20.902344 21.503906 20.953125 21.429688 C 21.003906 21.355469 21.074219 21.308594 21.160156 21.289062 C 21.25 21.273438 21.332031 21.289062 21.40625 21.339844 C 24.386719 23.339844 25.925781 23.566406 26.335938 23.152344 C 26.714844 22.773438 26.566406 21.480469 25.015625 18.984375 C 24.574219 18.269531 24.050781 17.511719 23.460938 16.730469 L 23.449219 16.714844 C 23.59375 16.550781 23.746094 16.375 23.886719 16.210938 C 24.527344 17.054688 25.09375 17.867188 25.570312 18.636719 L 25.65625 18.777344 C 26.710938 20.503906 27.722656 22.695312 26.800781 23.617188 Z M 26.800781 23.617188 " fill-opacity="1" fill-rule="nonzero"/></svg>